<mxfile host="app.diagrams.net" modified="2024-11-22T15:58:34.484Z" agent="Mozilla/5.0 (X11; Linux x86_64) AppleWebKit/537.36 (KHTML, like Gecko) Chrome/130.0.0.0 Safari/537.36" version="24.4.8" etag="novhPimN9GzwQcNqpj5n" type="github">
  <diagram name="Page-1" id="hbsieu_VoQnaq6x9lzQj">
    <mxGraphModel>
      <root>
        <mxCell id="0" />
        <mxCell id="1" parent="0" />
      </root>
    </mxGraphModel>
  </diagram>
</mxfile>
